<?xml version="1.0" encoding="UTF-8" standalone="no"?>
<!-- Created with Inkscape (http://www.inkscape.org/) -->

<svg
   xmlns:dc="http://purl.org/dc/elements/1.1/"
   xmlns:cc="http://creativecommons.org/ns#"
   xmlns:rdf="http://www.w3.org/1999/02/22-rdf-syntax-ns#"
   xmlns:svg="http://www.w3.org/2000/svg"
   xmlns="http://www.w3.org/2000/svg"
   xmlns:sodipodi="http://sodipodi.sourceforge.net/DTD/sodipodi-0.dtd"
   xmlns:inkscape="http://www.inkscape.org/namespaces/inkscape"
   width="350"
   height="125"
   viewBox="0 0 92.604167 33.072918"
   version="1.1"
   id="svg6819"
   inkscape:version="0.92.4 (unknown)"
   sodipodi:docname="22.svg">
  <defs
     id="defs6813" />
  <sodipodi:namedview
     id="base"
     pagecolor="#ffffff"
     bordercolor="#666666"
     borderopacity="1.0"
     inkscape:pageopacity="0.0"
     inkscape:pageshadow="2"
     inkscape:zoom="0.9899495"
     inkscape:cx="-29.669008"
     inkscape:cy="43.752833"
     inkscape:document-units="px"
     inkscape:current-layer="layer1"
     showgrid="false"
     units="px"
     inkscape:snap-nodes="false"
     inkscape:snap-bbox="true"
     inkscape:bbox-paths="false"
     inkscape:bbox-nodes="true"
     inkscape:window-width="1366"
     inkscape:window-height="711"
     inkscape:window-x="0"
     inkscape:window-y="0"
     inkscape:window-maximized="1" />
  <metadata
     id="metadata6816">
    <rdf:RDF>
      <cc:Work
         rdf:about="">
        <dc:format>image/svg+xml</dc:format>
        <dc:type
           rdf:resource="http://purl.org/dc/dcmitype/StillImage" />
        <dc:title />
      </cc:Work>
    </rdf:RDF>
  </metadata>
  <g
     inkscape:label="Layer 1"
     inkscape:groupmode="layer"
     id="layer1"
     transform="translate(0,-263.92708)">
    <rect
       style="opacity:1;fill:#000042;fill-opacity:1;fill-rule:nonzero;stroke:none;stroke-width:2;stroke-linecap:round;stroke-linejoin:round;stroke-miterlimit:4;stroke-dasharray:none;stroke-opacity:1"
       id="rect7677"
       width="77.508163"
       height="72.162773"
       x="-103.70058"
       y="145.1909" />
    <rect
       style="opacity:1;fill:#f8fbfc;fill-opacity:1;fill-rule:nonzero;stroke:none;stroke-width:1.39310348;stroke-linecap:round;stroke-linejoin:round;stroke-miterlimit:4;stroke-dasharray:none;stroke-opacity:1"
       id="rect7677-6"
       width="53.988445"
       height="50.265102"
       x="-92.207985"
       y="157.1996" />
    <g
       id="g9079"
       transform="translate(7.6067719,-6.6145863)"
       style="fill:#f8fbfc;fill-opacity:1">
      <g
         aria-label="Check"
         style="font-style:normal;font-variant:normal;font-weight:normal;font-stretch:normal;font-size:31.75px;line-height:1.25;font-family:Blocktopia;-inkscape-font-specification:Blocktopia;letter-spacing:0px;word-spacing:0px;fill:#f8fbfc;fill-opacity:1;stroke:none;stroke-width:0.39687505"
         id="text1482-2-4">
        <path
           d="M 11.90625,297 H 9.921875 7.9375 5.953125 3.96875 1.984375 v -1.98438 H 0 v -1.98437 -1.98438 -1.98437 -1.98438 -1.98437 -1.98438 -1.98437 -1.98438 h 1.984375 v -1.98437 H 3.96875 5.953125 7.9375 9.921875 11.90625 13.890625 v 1.98437 1.98438 H 11.90625 9.921875 7.9375 5.953125 v 1.98437 1.98438 1.98437 1.98438 1.98437 1.98438 H 7.9375 9.921875 11.90625 13.890625 V 295.01562 297 Z"
           style="fill:#f8fbfc;fill-opacity:1;stroke-width:0.39687505"
           id="path817" />
        <path
           d="M 27.78125,297 H 25.796875 23.8125 v -1.98438 -1.98437 -1.98438 -1.98437 -1.98438 -1.98437 h -1.984375 v 1.98437 1.98438 1.98437 1.98438 1.98437 V 297 H 19.84375 17.859375 15.875 v -1.98438 -1.98437 -1.98438 -1.98437 -1.98438 -1.98437 -1.98438 -1.98437 -1.98438 -1.98437 h 1.984375 1.984375 1.984375 v 1.98437 1.98438 h 1.984375 1.984375 1.984375 v 1.98437 h 1.984375 v 1.98438 1.98437 1.98438 1.98437 1.98438 1.98437 V 297 Z"
           style="fill:#f8fbfc;fill-opacity:1;stroke-width:0.39687505"
           id="path819" />
        <path
           d="M 41.671875,297 H 39.6875 37.703125 35.71875 33.734375 v -1.98438 H 31.75 v -1.98437 -1.98438 -1.98437 -1.98438 -1.98437 -1.98438 h 1.984375 V 281.125 h 1.984375 1.984375 1.984375 1.984375 1.984375 v 1.98437 h 1.984375 v 1.98438 1.98437 1.98438 1.98437 H 43.65625 41.671875 39.6875 37.703125 v 1.98438 H 39.6875 41.671875 43.65625 V 295.01562 297 Z M 39.6875,287.07812 v -1.98437 h -1.984375 v 1.98437 z"
           style="fill:#f8fbfc;fill-opacity:1;stroke-width:0.39687505"
           id="path821" />
        <path
           d="M 59.53125,297 H 57.546875 55.5625 53.578125 51.59375 49.609375 v -1.98438 H 47.625 v -1.98437 -1.98438 -1.98437 -1.98438 -1.98437 -1.98438 h 1.984375 V 281.125 h 1.984375 1.984375 1.984375 1.984375 1.984375 1.984375 v 1.98437 1.98438 H 59.53125 57.546875 55.5625 53.578125 v 1.98437 1.98438 1.98437 1.98438 h 1.984375 1.984375 1.984375 1.984375 V 295.01562 297 Z"
           style="fill:#f8fbfc;fill-opacity:1;stroke-width:0.39687505"
           id="path823" />
        <path
           d="M 75.40625,297 H 73.421875 71.4375 v -1.98438 -1.98437 -1.98438 -1.98437 h -1.984375 v 1.98437 1.98438 1.98437 V 297 H 67.46875 65.484375 63.5 v -1.98438 -1.98437 -1.98438 -1.98437 -1.98438 -1.98437 -1.98438 -1.98437 -1.98438 -1.98437 h 1.984375 1.984375 1.984375 v 1.98437 1.98438 1.98437 1.98438 H 71.4375 v -1.98438 -1.98437 h 1.984375 1.984375 1.984375 v 1.98437 1.98438 H 75.40625 v 1.98437 h 1.984375 v 1.98438 1.98437 1.98438 1.98437 V 297 Z"
           style="fill:#f8fbfc;fill-opacity:1;stroke-width:0.39687505"
           id="path825" />
      </g>
    </g>
  </g>
</svg>
