<?xml version="1.0" encoding="UTF-8" standalone="no"?>
<!-- Created with Inkscape (http://www.inkscape.org/) -->

<svg
   xmlns:dc="http://purl.org/dc/elements/1.1/"
   xmlns:cc="http://creativecommons.org/ns#"
   xmlns:rdf="http://www.w3.org/1999/02/22-rdf-syntax-ns#"
   xmlns:svg="http://www.w3.org/2000/svg"
   xmlns="http://www.w3.org/2000/svg"
   xmlns:sodipodi="http://sodipodi.sourceforge.net/DTD/sodipodi-0.dtd"
   xmlns:inkscape="http://www.inkscape.org/namespaces/inkscape"
   width="175"
   height="125"
   viewBox="0 0 46.302082 33.072917"
   version="1.1"
   id="svg6819"
   inkscape:version="0.92.4 (unknown)"
   sodipodi:docname="31.svg">
  <defs
     id="defs6813" />
  <sodipodi:namedview
     id="base"
     pagecolor="#ffffff"
     bordercolor="#666666"
     borderopacity="1.0"
     inkscape:pageopacity="0.0"
     inkscape:pageshadow="2"
     inkscape:zoom="0.7"
     inkscape:cx="231.2702"
     inkscape:cy="-39.660948"
     inkscape:document-units="px"
     inkscape:current-layer="layer1"
     showgrid="false"
     units="px"
     inkscape:snap-nodes="false"
     inkscape:snap-bbox="true"
     inkscape:bbox-paths="false"
     inkscape:bbox-nodes="true"
     inkscape:window-width="1366"
     inkscape:window-height="711"
     inkscape:window-x="0"
     inkscape:window-y="0"
     inkscape:window-maximized="1" />
  <metadata
     id="metadata6816">
    <rdf:RDF>
      <cc:Work
         rdf:about="">
        <dc:format>image/svg+xml</dc:format>
        <dc:type
           rdf:resource="http://purl.org/dc/dcmitype/StillImage" />
        <dc:title></dc:title>
      </cc:Work>
    </rdf:RDF>
  </metadata>
  <g
     inkscape:label="Layer 1"
     inkscape:groupmode="layer"
     id="layer1"
     transform="translate(0,-263.92708)">
    <path
       style="fill:#f8fbfc;fill-opacity:1;stroke:none;stroke-width:0.01653646px;stroke-linecap:butt;stroke-linejoin:miter;stroke-opacity:1"
       d="m 36.380206,267.23437 h -1.65364 v 1.65364 h -1.65365 v 1.65365 h -1.65364 v -1.65365 h -3.3073 v -1.65364 h -3.30729 -3.30729 -3.30729 v 1.65364 h -1.65365 -1.65364 v 1.65365 h -1.65365 v 1.65365 h -1.65365 v 3.30729 H 9.9218764 v 3.30729 1.65365 1.65364 1.65365 1.65365 h 1.6536396 v 1.65364 1.65364 h 1.65365 v 1.65365 h 1.65365 v 1.65365 h 3.30729 v 1.65364 h 3.30729 3.30729 1.65365 1.65364 v -1.65364 h 1.65365 1.65365 v -1.65365 h 1.65364 v -3.30729 h -3.30729 v 1.65364 h -1.65365 -1.65364 v 1.65365 h -1.65365 -1.65365 -1.65364 -1.65364 v -1.65365 h -3.3073 v -1.65364 h -1.65364 v -3.30729 h -1.65365 v -1.65365 -1.65364 -1.65365 -1.65365 h 1.65365 v -1.65364 -1.65365 h 1.65364 v -1.65364 h 1.65365 1.65365 v -1.65365 h 1.65364 3.30729 1.65365 v 1.65365 h 3.30729 v 1.65364 h -1.65365 v 1.65365 h -1.65364 v 1.65364 h 3.30729 3.30729 3.30729 v -3.30729 -3.30729 z"
       id="path1590-3-9-6"
       inkscape:connector-curvature="0" />
    <rect
       style="opacity:1;fill:#000042;fill-opacity:1;fill-rule:nonzero;stroke:none;stroke-width:2;stroke-linecap:round;stroke-linejoin:round;stroke-miterlimit:4;stroke-dasharray:none;stroke-opacity:1"
       id="rect7677"
       width="77.508163"
       height="72.162773"
       x="-87.890984"
       y="202.33229" />
    <rect
       style="opacity:1;fill:#f8fbfc;fill-opacity:1;fill-rule:nonzero;stroke:none;stroke-width:1.39310348;stroke-linecap:round;stroke-linejoin:round;stroke-miterlimit:4;stroke-dasharray:none;stroke-opacity:1"
       id="rect7677-6"
       width="53.988445"
       height="50.265102"
       x="-76.398392"
       y="214.34099" />
  </g>
</svg>
