<?xml version="1.0" encoding="UTF-8" standalone="no"?>
<!-- Created with Inkscape (http://www.inkscape.org/) -->

<svg
   xmlns:dc="http://purl.org/dc/elements/1.1/"
   xmlns:cc="http://creativecommons.org/ns#"
   xmlns:rdf="http://www.w3.org/1999/02/22-rdf-syntax-ns#"
   xmlns:svg="http://www.w3.org/2000/svg"
   xmlns="http://www.w3.org/2000/svg"
   xmlns:sodipodi="http://sodipodi.sourceforge.net/DTD/sodipodi-0.dtd"
   xmlns:inkscape="http://www.inkscape.org/namespaces/inkscape"
   width="350"
   height="125"
   viewBox="0 0 92.604164 33.072918"
   version="1.1"
   id="svg6819"
   inkscape:version="0.92.4 (unknown)"
   sodipodi:docname="32.svg">
  <defs
     id="defs6813" />
  <sodipodi:namedview
     id="base"
     pagecolor="#ffffff"
     bordercolor="#666666"
     borderopacity="1.0"
     inkscape:pageopacity="0.0"
     inkscape:pageshadow="2"
     inkscape:zoom="0.7"
     inkscape:cx="-182.22101"
     inkscape:cy="104.72892"
     inkscape:document-units="px"
     inkscape:current-layer="layer1"
     showgrid="false"
     units="in"
     inkscape:snap-nodes="false"
     inkscape:snap-bbox="true"
     inkscape:bbox-paths="false"
     inkscape:bbox-nodes="true"
     inkscape:window-width="1366"
     inkscape:window-height="711"
     inkscape:window-x="0"
     inkscape:window-y="0"
     inkscape:window-maximized="1" />
  <metadata
     id="metadata6816">
    <rdf:RDF>
      <cc:Work
         rdf:about="">
        <dc:format>image/svg+xml</dc:format>
        <dc:type
           rdf:resource="http://purl.org/dc/dcmitype/StillImage" />
        <dc:title />
      </cc:Work>
    </rdf:RDF>
  </metadata>
  <g
     inkscape:label="Layer 1"
     inkscape:groupmode="layer"
     id="layer1"
     transform="translate(0,-263.92708)">
    <rect
       style="opacity:1;fill:#000042;fill-opacity:1;fill-rule:nonzero;stroke:none;stroke-width:2;stroke-linecap:round;stroke-linejoin:round;stroke-miterlimit:4;stroke-dasharray:none;stroke-opacity:1"
       id="rect7677"
       width="77.508163"
       height="72.162773"
       x="-103.70058"
       y="145.1909" />
    <rect
       style="opacity:1;fill:#f8fbfc;fill-opacity:1;fill-rule:nonzero;stroke:none;stroke-width:1.39310348;stroke-linecap:round;stroke-linejoin:round;stroke-miterlimit:4;stroke-dasharray:none;stroke-opacity:1"
       id="rect7677-6"
       width="53.988445"
       height="50.265102"
       x="-92.207985"
       y="157.1996" />
    <g
       aria-label="New"
       style="font-style:normal;font-variant:normal;font-weight:normal;font-stretch:normal;font-size:31.75px;line-height:1.25;font-family:Blocktopia;-inkscape-font-specification:Blocktopia;letter-spacing:0px;word-spacing:0px;fill:#f8fbfc;fill-opacity:1;stroke:none;stroke-width:0.39687502"
       id="text1572-6-9">
      <path
         d="m 31.419271,290.38541 h -1.984375 -1.984375 v -1.98438 -1.98437 -1.98438 -1.98437 -1.98438 -1.98437 -1.98438 -1.98437 h -1.984375 v 1.98437 1.98438 1.98437 1.98438 1.98437 1.98438 1.98437 1.98438 h -1.984375 -1.984375 -1.984375 v -1.98438 -1.98437 -1.98438 -1.98437 -1.98438 -1.98437 -1.98438 -1.98437 -1.98438 -1.98437 h 1.984375 1.984375 1.984375 1.984375 1.984375 1.984375 v 1.98437 h 1.984375 v 1.98438 1.98437 1.98438 1.98437 1.98438 1.98437 1.98438 1.98437 1.98438 z"
         style="fill:#f8fbfc;fill-opacity:1;stroke-width:0.39687502"
         id="path819" />
      <path
         d="m 45.309896,290.38541 h -1.984375 -1.984375 -1.984375 -1.984375 v -1.98438 h -1.984375 v -1.98437 -1.98438 -1.98437 -1.98438 -1.98437 -1.98438 h 1.984375 v -1.98437 h 1.984375 1.984375 1.984375 1.984375 1.984375 v 1.98437 h 1.984375 v 1.98438 1.98437 1.98438 1.98437 h -1.984375 -1.984375 -1.984375 -1.984375 v 1.98438 h 1.984375 1.984375 1.984375 v 1.98437 1.98438 z m -1.984375,-9.92188 v -1.98437 h -1.984375 v 1.98437 z"
         style="fill:#f8fbfc;fill-opacity:1;stroke-width:0.39687502"
         id="path821" />
      <path
         d="m 71.106771,290.38541 h -1.984375 -1.984375 -1.984375 -1.984375 -1.984375 -1.984375 -1.984375 -1.984375 -1.984375 v -1.98438 h -1.984375 v -1.98437 -1.98438 -1.98437 -1.98438 -1.98437 -1.98438 -1.98437 h 1.984375 1.984375 1.984375 v 1.98437 1.98438 1.98437 1.98438 1.98437 1.98438 h 1.984375 v -1.98438 -1.98437 -1.98438 -1.98437 -1.98438 -1.98437 h 1.984375 1.984375 1.984375 v 1.98437 1.98438 1.98437 1.98438 1.98437 1.98438 h 1.984375 v -1.98438 -1.98437 -1.98438 -1.98437 -1.98438 -1.98437 h 1.984375 1.984375 1.984375 v 1.98437 1.98438 1.98437 1.98438 1.98437 1.98438 1.98437 1.98438 z"
         style="fill:#f8fbfc;fill-opacity:1;stroke-width:0.39687502"
         id="path823" />
    </g>
  </g>
</svg>
