<?xml version="1.0" encoding="UTF-8" standalone="no"?>
<!-- Created with Inkscape (http://www.inkscape.org/) -->

<svg
   xmlns:dc="http://purl.org/dc/elements/1.1/"
   xmlns:cc="http://creativecommons.org/ns#"
   xmlns:rdf="http://www.w3.org/1999/02/22-rdf-syntax-ns#"
   xmlns:svg="http://www.w3.org/2000/svg"
   xmlns="http://www.w3.org/2000/svg"
   xmlns:sodipodi="http://sodipodi.sourceforge.net/DTD/sodipodi-0.dtd"
   xmlns:inkscape="http://www.inkscape.org/namespaces/inkscape"
   width="175"
   height="125"
   viewBox="0 0 46.302083 33.072916"
   version="1.1"
   id="svg2375"
   inkscape:version="0.92.4 (unknown)"
   sodipodi:docname="mixIcon.svg">
  <defs
     id="defs2369" />
  <sodipodi:namedview
     id="base"
     pagecolor="#ffffff"
     bordercolor="#666666"
     borderopacity="1.0"
     inkscape:pageopacity="0.0"
     inkscape:pageshadow="2"
     inkscape:zoom="0.49497475"
     inkscape:cx="-181.87826"
     inkscape:cy="-149.98612"
     inkscape:document-units="px"
     inkscape:current-layer="layer1"
     showgrid="true"
     units="px"
     inkscape:window-width="1366"
     inkscape:window-height="711"
     inkscape:window-x="0"
     inkscape:window-y="0"
     inkscape:window-maximized="1"
     inkscape:object-nodes="false"
     inkscape:snap-bbox="true"
     inkscape:bbox-nodes="true">
    <inkscape:grid
       type="xygrid"
       id="grid2939"
       spacingx="0.26458333"
       empspacing="10" />
  </sodipodi:namedview>
  <metadata
     id="metadata2372">
    <rdf:RDF>
      <cc:Work
         rdf:about="">
        <dc:format>image/svg+xml</dc:format>
        <dc:type
           rdf:resource="http://purl.org/dc/dcmitype/StillImage" />
        <dc:title />
      </cc:Work>
    </rdf:RDF>
  </metadata>
  <g
     inkscape:label="Layer 1"
     inkscape:groupmode="layer"
     id="layer1"
     transform="translate(0,-263.92709)">
    <path
       style="opacity:1;fill:#f8fbfc;fill-opacity:1;fill-rule:nonzero;stroke:none;stroke-width:0.88767713;stroke-linecap:round;stroke-linejoin:round;stroke-miterlimit:4;stroke-dasharray:none;stroke-opacity:1"
       d="m 28.111976,293.69271 v -1.65364 h 1.65365 1.653644 v -1.65365 h 1.653644 v -1.65365 h 1.65365 v -3.30729 h 1.653644 v -3.30729 -1.65365 h -3.307294 v 1.65365 1.65364 H 31.41927 v 1.65365 1.65365 h -1.653644 v 1.65364 h -1.65365 -1.653644 v 1.65365 h -1.653643 -3.307294 -1.653644 v -1.65365 h -3.307294 v -1.65364 H 18.1901 v -1.65365 h 1.653651 v -1.65365 h -3.307294 -1.653644 -1.65365 -3.3072882 v 1.65365 1.65365 3.30729 3.30729 h 1.6536442 v -1.65364 h 1.653644 v -1.65365 h 1.65365 v 1.65365 H 18.1901 v 1.65364 h 3.307295 3.307294 z M 13.229163,280.46354 v -1.65364 -1.65365 h 1.65365 v -3.30729 h 1.653644 v -1.65365 h 1.653643 1.653651 v -1.65364 h 1.653644 1.653643 1.653651 1.653643 v 1.65364 h 3.307294 v 1.65365 h -1.65365 v 1.65365 h -1.653644 v 1.65364 h 9.921876 v -1.65364 -8.26823 h -1.653644 v 1.65364 h -1.65365 v 1.65365 H 31.41927 v -1.65365 h -3.307294 v -1.65364 H 24.804689 21.497395 19.843751 18.1901 v 1.65364 h -1.653643 -1.653644 v 1.65365 h -1.65365 v 1.65364 h -1.653644 v 1.65365 1.65365 H 9.9218748 v 1.65364 1.65365 1.65364 h 1.6536442 z"
       id="path2966"
       inkscape:connector-curvature="0" />
    <rect
       style="opacity:1;fill:#000042;fill-opacity:1;fill-rule:nonzero;stroke:none;stroke-width:1.99999988;stroke-linecap:round;stroke-linejoin:round;stroke-miterlimit:4;stroke-dasharray:none;stroke-opacity:1"
       id="rect7677"
       width="77.508163"
       height="72.162773"
       x="-81.356026"
       y="176.51788" />
    <rect
       style="opacity:1;fill:#f8fbfc;fill-opacity:1;fill-rule:nonzero;stroke:none;stroke-width:1.39310348;stroke-linecap:round;stroke-linejoin:round;stroke-miterlimit:4;stroke-dasharray:none;stroke-opacity:1"
       id="rect7677-6"
       width="53.988445"
       height="50.265099"
       x="-69.863441"
       y="188.52657" />
  </g>
</svg>
